<svg xmlns="http://www.w3.org/2000/svg" xmlns:xlink="http://www.w3.org/1999/xlink" version="1.1" x="0px" y="0px" viewBox="0 0 100 100" style="enable-background:new 0 0 100 100;" xml:space="preserve"><g><path d="M50.5,95.2l-6.6-20.5L28,89.2l4.6-21.1l-21.1,4.6L26,56.8L5.5,50.2L26,43.7L11.5,27.8l21.1,4.6L28,11.3l15.9,14.5l6.6-20.5   l6.6,20.5L73,11.3l-4.6,21.1l21.1-4.6L75,43.7l20.5,6.6L75,56.8l14.5,15.9l-21.1-4.6L73,89.2L57.1,74.7L50.5,95.2z M45.8,67.9   l4.7,14.8l4.7-14.8l11.5,10.4l-3.3-15.2l15.2,3.3L68.1,55l14.8-4.7l-14.8-4.7l10.4-11.5l-15.2,3.3l3.3-15.2L55.2,32.6l-4.7-14.8   l-4.7,14.8L34.3,22.2l3.3,15.2l-15.2-3.3l10.4,11.5l-14.8,4.7L32.9,55L22.5,66.4l15.2-3.3l-3.3,15.2L45.8,67.9z"/></g></svg>
