<svg xmlns="http://www.w3.org/2000/svg" width="48" height="48"><path d="M13.549 23.82V10.51q-3.715 2.853-5.002 2.853-.615 0-1.097-.483-.468-.497-.468-1.14 0-.746.468-1.097.468-.352 1.652-.907 1.77-.834 2.823-1.755 1.068-.922 1.887-2.063.819-1.14 1.068-1.404.248-.263.936-.263.775 0 1.243.6.468.6.468 1.652V23.25q0 2.94-2.004 2.94-.892 0-1.433-.6t-.541-1.77zm12.885-1.448h7.634q1.141 0 1.74.469.6.468.6 1.272 0 .717-.482 1.214-.468.497-1.434.497H23.728q-1.097 0-1.711-.6-.615-.614-.615-1.433 0-.526.395-1.39.395-.877.863-1.374 1.945-2.018 3.51-3.452 1.565-1.448 2.238-1.901 1.2-.848 1.99-1.697.804-.863 1.213-1.755.424-.907.424-1.77 0-.936-.453-1.667-.439-.746-1.214-1.155-.76-.41-1.667-.41-1.916 0-3.013 1.682-.147.22-.498 1.2-.336.98-.775 1.506-.424.526-1.258.526-.73 0-1.214-.482-.482-.483-.482-1.317 0-1.009.453-2.106.454-1.097 1.346-1.989.907-.892 2.281-1.433 1.39-.556 3.247-.556 2.238 0 3.818.702 1.024.468 1.799 1.287.775.82 1.199 1.901.439 1.068.439 2.224 0 1.813-.907 3.305-.892 1.477-1.828 2.326-.936.833-3.145 2.632-2.194 1.8-3.013 2.794-.35.395-.716.95z" aria-label="12" style="font-size:29.9539px;font-family:&quot;Arial Rounded MT Bold&quot;;-inkscape-font-specification:&quot;Arial Rounded MT Bold, Normal&quot;;letter-spacing:-3.14515px;stroke-width:2.49615" transform="scale(1.04907 .95322)"/><path d="M14.246 32.43q1.346 0 2.31-.79.98-.79.98-2.268 0-1.126-.774-1.93-.776-.82-2.092-.82-.892 0-1.477.25-.57.248-.907.657-.336.41-.643 1.053-.293.644-.542 1.214-.146.308-.526.483-.38.176-.878.176-.585 0-1.082-.468-.483-.483-.483-1.273 0-.76.454-1.594.468-.848 1.345-1.609.893-.76 2.209-1.214 1.316-.468 2.94-.468 1.418 0 2.588.395 1.17.38 2.033 1.112.863.73 1.302 1.696.439.965.439 2.077 0 1.463-.644 2.516-.629 1.038-1.813 2.033 1.14.614 1.916 1.404.79.79 1.184 1.755.395.95.395 2.062 0 1.331-.54 2.574-.527 1.243-1.566 2.223-1.038.966-2.472 1.522-1.418.54-3.144.54-1.755 0-3.145-.628-1.39-.63-2.296-1.565-.892-.95-1.36-1.96-.454-1.01-.454-1.667 0-.849.542-1.36.555-.527 1.374-.527.41 0 .79.248.38.234.498.57.76 2.034 1.623 3.028.878.98 2.457.98.907 0 1.74-.438.849-.454 1.39-1.331.556-.878.556-2.033 0-1.712-.936-2.677-.936-.98-2.604-.98-.292 0-.906.059-.615.058-.79.058-.805 0-1.243-.395-.44-.41-.44-1.126 0-.702.527-1.126.527-.439 1.565-.439zm16.936 11.086v-2.72H23.84q-1.39 0-2.091-.63-.688-.629-.688-1.711 0-.278.102-.556.103-.292.308-.6.204-.321.424-.614l.54-.716 7.753-10.37q.76-1.024 1.243-1.477.497-.468 1.185-.468 2.223 0 2.223 2.544v11.32h.629q1.126 0 1.799.308.687.307.687 1.346 0 .848-.556 1.243-.556.38-1.667.38h-.892v2.72q0 1.127-.498 1.683-.497.54-1.33.54-.82 0-1.331-.555-.498-.57-.498-1.667zm-6.289-5.997h6.29V29.02z" aria-label="34" style="font-size:29.9539px;font-family:&quot;Arial Rounded MT Bold&quot;;-inkscape-font-specification:&quot;Arial Rounded MT Bold, Normal&quot;;letter-spacing:-3.14515px;stroke-width:2.49615" transform="scale(1.04907 .95322)"/></svg>