<svg xmlns="http://www.w3.org/2000/svg" xmlns:xlink="http://www.w3.org/1999/xlink" version="1.1" x="0px" y="0px" viewBox="0 0 100 100" style="enable-background:new 0 0 100 100;" xml:space="preserve"><path d="M30.6,30.5V21h11v9.5H30.6z M12.4,47.7H3V79h9.5V58.6h8.9v-18h-9V47.7z M23.9,79h10V63h-10V79z M30.6,10h-11v11h11V10z   M80.1,10h-11v11h11V10z M69.1,21h-11v9.5h11V21z M33.8,90h12.5V79H33.8V90z M23.9,33h52.3v27.5H23.9V33z M58.2,51.6h11v-11h-11  V51.6z M30.5,51.6h11v-11h-11V51.6z M87.6,47.7v-7h-9v18h8.9V79H97V47.7H87.6z M53.6,90h12.5V79H53.6V90z M34.6,50.2H40v-3.1h-1.3  v-1.3H40v-1.1h-5.5V50.2z M66.1,79h10V63h-10V79z M62.2,50.2h5.5v-3.1h-1.3v-1.3h1.3v-1.1h-5.5V50.2z"/></svg>
