<svg xmlns="http://www.w3.org/2000/svg" xmlns:xlink="http://www.w3.org/1999/xlink" xml:space="preserve" version="1.1" style="shape-rendering:geometricPrecision;text-rendering:geometricPrecision;image-rendering:optimizeQuality;" viewBox="0 0 333.33 333.33" x="0px" y="0px" fill-rule="evenodd" clip-rule="evenodd"><defs><style type="text/css">

    .fil0 {fill:black;fill-rule:nonzero}

  </style></defs><g><path class="fil0" d="M152.92 14.27l1.11 -1.04c3.6,-3.19 8.13,-4.8 12.64,-4.8 4.69,0 9.41,1.73 13.07,5.19 9.08,8.83 19.53,18.76 28.01,28.02 3.44,3.67 5.16,8.35 5.16,13.03 0,4.86 -1.87,9.74 -5.59,13.46 -3.73,3.76 -8.61,5.62 -13.5,5.62 -2.75,0 -5.51,-0.6 -8.06,-1.79l0 75.63 75.62 0c-1.19,-2.55 -1.78,-5.31 -1.78,-8.06 0,-4.88 1.87,-9.77 5.59,-13.5l0.46 -0.43c3.67,-3.44 8.35,-5.16 13.03,-5.16 4.87,0 9.74,1.87 13.47,5.59 9.2,9.2 18.57,18.35 27.64,27.66 3.4,3.64 5.11,8.34 5.11,13.01 -0.02,4.69 -1.72,9.39 -5.14,13.01 -9.13,9.13 -18.64,19.41 -28.06,28.04 -3.67,3.44 -8.35,5.16 -13.03,5.16 -4.86,0 -9.74,-1.87 -13.46,-5.59 -3.76,-3.73 -5.62,-8.61 -5.62,-13.5 0,-2.75 0.6,-5.51 1.79,-8.06l-75.63 0 0 75.63c2.55,-1.2 5.31,-1.8 8.06,-1.8 4.86,0 9.74,1.87 13.46,5.59 3.76,3.73 5.62,8.61 5.62,13.5 0,4.86 -1.87,9.74 -5.59,13.46 -9.2,9.2 -18.35,18.57 -27.66,27.65 -3.64,3.4 -8.34,5.11 -13.01,5.11 -4.69,-0.02 -9.39,-1.72 -13.01,-5.14 -9.12,-9.12 -19.43,-18.64 -28.04,-28.05 -3.44,-3.67 -5.16,-8.35 -5.16,-13.03 0,-4.86 1.87,-9.74 5.59,-13.46 3.72,-3.75 8.62,-5.62 13.5,-5.62 2.76,0 5.51,0.59 8.06,1.78l0 -75.61 -75.63 0c1.19,2.55 1.79,5.31 1.79,8.06 0,4.86 -1.87,9.74 -5.59,13.46 -3.73,3.76 -8.61,5.62 -13.5,5.62 -4.86,0 -9.74,-1.87 -13.46,-5.59 -8.98,-8.97 -19.65,-18.67 -27.96,-28 -3.2,-3.6 -4.8,-8.13 -4.8,-12.65 0,-4.68 1.73,-9.4 5.19,-13.07 9.02,-9.28 18.39,-18.39 27.55,-27.56 3.75,-3.75 8.64,-5.61 13.5,-5.61 4.88,0 9.77,1.87 13.49,5.59 3.72,3.72 5.59,8.62 5.59,13.5 0,2.76 -0.59,5.52 -1.78,8.06l75.62 0 0 -75.62c-2.55,1.19 -5.3,1.78 -8.06,1.78 -4.88,0 -9.77,-1.87 -13.5,-5.59 -3.72,-3.72 -5.59,-8.61 -5.59,-13.49 0,-4.86 1.87,-9.74 5.59,-13.47l26.9 -26.92z"/></g></svg>
